<svg viewBox="0 0 114 119" xmlns="http://www.w3.org/2000/svg" xmlns:xlink="http://www.w3.org/1999/xlink" width="114.000000" height="119.000000" fill="none">
	<rect id="Group 13 1" width="114.000000" height="119.000000" x="0.000000" y="0.000000" />
	<path id="Форма 1" d="M75.817 9.09554L75.817 23.1178L67.4771 23.1178L67.4771 34.5087L95.3687 18.9535L95.371 18.949L113.424 28.8706L113.725 28.8706L113.725 91.3624L106.504 95.3592L96.6561 100.809L96.6561 37.2001L67.5082 53.457L67.4771 53.4037L67.4771 59.6332C79.0051 64.0541 87.1895 75.222 87.1895 88.3026C87.1895 105.257 73.442 119 56.4837 119C39.5253 119 25.7778 105.257 25.7778 88.3026C25.7778 74.937 34.3227 63.5685 46.2484 59.3542L46.2484 53.326L46.2173 53.3793L17.0692 37.1224L17.0692 100.731L7.22186 95.2811L0 91.2851L0 28.7929L0.301343 28.7929L18.3545 18.8714L18.3567 18.8757L46.2484 34.4318L46.2484 23.1178L37.9085 23.1178L37.9085 9.09554L56.8627 0L75.817 9.09554ZM38.6667 87.1656C38.6667 87.1656 38.6685 104.599 56.4837 104.599C74.2988 104.599 74.3007 87.1656 74.3007 87.1656L38.6667 87.1656Z" fill="rgb(255,255,255)" fill-rule="nonzero" />
	<ellipse id="Эллипс 3" rx="3.032681" ry="3.031845" cx="63.686245" cy="70.4904633" fill="rgb(7,40,124)" />
	<ellipse id="Эллипс 4" rx="1.895424" ry="1.894905" cx="54.2091446" cy="65.5636978" fill="rgb(7,40,124)" />
	<ellipse id="Эллипс 5" rx="1.516340" ry="1.515923" cx="54.5882416" cy="84.1337509" fill="rgb(7,40,124)" />
	<ellipse id="Эллипс 6" rx="3.032679" ry="3.031849" cx="50.0392075" cy="75.0382233" fill="rgb(7,40,124)" />
	<ellipse id="Эллипс 7" rx="2.653595" ry="2.652866" cx="62.5490417" cy="82.2388611" fill="rgb(7,40,124)" />
	<path id="Форма 2" d="M75.7178 9.09554L75.7178 23.1178L67.3779 23.1178L67.3779 34.5087L95.2694 18.9535L95.2717 18.949L113.325 28.8706L113.626 28.8706L113.626 91.3624L106.405 95.3592L96.5567 100.809L96.5567 37.2001L70.1981 51.9011L46.1491 34.3992L46.1491 23.1178L37.8093 23.1178L37.8093 9.09554L56.7635 0L75.7178 9.09554Z" fill="rgb(255,255,255)" fill-rule="nonzero" />
	<path id="Форма 3" d="M139.471 82.6178C137.005 82.6178 135.772 81.3414 135.772 78.7894L135.772 41.0237C135.772 38.4714 137.005 37.1952 139.471 37.1952L140.315 37.1952C142.262 37.1952 143.798 38.0388 144.923 39.7259L164.656 69.4453L164.656 41.0237C164.656 39.7692 164.98 38.8175 165.629 38.1686C166.321 37.5197 167.274 37.1952 168.485 37.1952C170.995 37.1952 172.249 38.4714 172.249 41.0237L172.249 78.7894C172.249 81.3414 171.06 82.6178 168.68 82.6178L168.031 82.6178C166.04 82.6178 164.504 81.7742 163.422 80.087L143.236 49.4593L143.236 78.7894C143.236 81.3414 141.981 82.6178 139.471 82.6178ZM185.175 82.6178C182.664 82.6178 181.41 81.3414 181.41 78.7894L181.41 41.0237C181.41 39.5529 181.777 38.5579 182.513 38.0388C183.292 37.4764 184.417 37.1952 185.888 37.1952C187.879 37.1952 189.393 38.0604 190.432 39.7908L201.92 58.9981L213.279 39.8557C213.885 38.7742 214.577 38.0604 215.356 37.7143C216.178 37.3683 217.238 37.1952 218.536 37.1952C221.09 37.1952 222.366 38.4714 222.366 41.0237L222.366 78.7894C222.366 81.3414 221.09 82.6178 218.536 82.6178C215.984 82.6178 214.707 81.3414 214.707 78.7894L214.707 50.238L205.555 66.071C204.647 67.8447 203.413 68.7315 201.855 68.7315C200.298 68.7315 199.064 67.8447 198.156 66.071L188.939 50.238L188.939 78.7894C188.939 81.3414 187.684 82.6178 185.175 82.6178ZM235.378 82.6178C232.824 82.6178 231.548 81.3414 231.548 78.7894L231.548 41.0237C231.548 38.4714 232.781 37.1952 235.248 37.1952C237.758 37.1952 239.012 38.4714 239.012 41.0237L239.012 75.6747L258.874 75.6747C261.427 75.6747 262.704 76.8209 262.704 79.1138C262.704 81.4498 261.427 82.6178 258.874 82.6178L235.378 82.6178ZM268.825 82.6178C267.57 82.6178 266.704 82.2502 266.229 81.515C265.753 80.779 265.753 79.7846 266.229 78.5301L280.897 40.0504C281.547 38.1469 282.91 37.1952 284.987 37.1952L285.506 37.1952C287.583 37.1952 288.946 38.1469 289.595 40.0504L304.329 78.5301C304.806 79.7846 304.784 80.779 304.264 81.515C303.788 82.2502 302.923 82.6178 301.668 82.6178L300.435 82.6178C298.401 82.6178 297.059 81.6446 296.41 79.6982L293.88 72.6249L276.419 72.6249L273.888 79.6982C273.238 81.6446 271.897 82.6178 269.864 82.6178L268.825 82.6178ZM278.886 65.6817L291.478 65.6817L285.246 47.9668L278.886 65.6817ZM314.731 82.6178C312.351 82.6178 311.161 81.4278 311.161 79.0486L311.161 40.7642C311.161 38.3848 312.351 37.1952 314.731 37.1952L330.244 37.1952C333.965 37.1952 337.037 38.1902 339.46 40.1801C341.884 42.1268 343.095 44.9603 343.095 48.6807C343.095 51.3195 342.49 53.5257 341.278 55.2994C340.11 57.0298 338.617 58.1978 336.799 58.8034C339.135 59.236 341.083 60.5122 342.64 62.6319C344.242 64.7083 345.042 67.2823 345.042 70.3537C345.042 74.5499 343.788 77.6433 341.278 79.633C338.768 81.6226 335.328 82.6178 330.957 82.6178L314.731 82.6178ZM318.625 75.6747L329.919 75.6747C332.299 75.6747 334.051 75.1771 335.176 74.1822C336.345 73.144 336.929 71.5217 336.929 69.3155C336.929 67.1958 336.258 65.6168 334.917 64.5786C333.575 63.4971 331.909 62.9564 329.919 62.9564L318.625 62.9564L318.625 75.6747ZM318.625 55.9483L328.946 55.9483C330.936 55.9483 332.429 55.4075 333.424 54.3261C334.419 53.2445 334.917 51.7521 334.917 49.8487C334.917 47.9452 334.376 46.5177 333.294 45.566C332.256 44.6142 330.763 44.1384 328.815 44.1384L318.625 44.1384L318.625 55.9483Z" fill="rgb(255,255,255)" fill-rule="nonzero" />
</svg>
